<svg width="360" height="65" viewBox="0 0 360 65" fill="none" xmlns="http://www.w3.org/2000/svg">
<rect x="16" width="65" height="65" rx="24" fill="black" fill-opacity="0.41"/>
<path d="M39.25 34.4329L37.2536 35.2571C36.2705 35.663 35.777 36.7673 36.1305 37.7704L37.7993 42.507C38.1802 43.5879 39.3896 44.1284 40.4489 43.6911L40.4964 43.6715C41.4795 43.2656 41.973 42.1613 41.6195 41.1582L39.25 34.4329ZM39.25 34.4329L40.366 27.5225C40.6086 26.0197 41.5227 24.7093 42.8492 23.9626L46.5472 21.8808C48.07 21.0235 49.93 21.0235 51.4528 21.8808L55.1508 23.9626C56.4773 24.7093 57.3914 26.0197 57.634 27.5225L58.75 34.4329M58.75 34.4329L60.3156 34.7561C61.4816 34.9968 62.1804 36.1965 61.8145 37.3295L60.1653 42.4356C59.8067 43.546 58.5776 44.1148 57.499 43.6695L55.75 42.9475M58.75 34.4329L55.75 42.9475M55.75 42.9475C55.75 42.9475 54.1406 44.4434 52 44.4957C50.3294 44.5366 48.601 44.291 47.5 43.5028" stroke="#525252" stroke-width="1.5" stroke-linecap="round"/>
<path d="M102.049 37.5V36.3068L105.741 32.4822C106.135 32.0668 106.46 31.7028 106.716 31.3903C106.975 31.0742 107.168 30.7741 107.296 30.4901C107.424 30.206 107.488 29.9041 107.488 29.5845C107.488 29.2223 107.403 28.9098 107.232 28.647C107.062 28.3807 106.829 28.1765 106.534 28.0344C106.24 27.8888 105.908 27.8161 105.538 27.8161C105.148 27.8161 104.807 27.896 104.516 28.0558C104.224 28.2156 104.001 28.4411 103.844 28.7322C103.688 29.0234 103.61 29.3643 103.61 29.755H102.039C102.039 29.0909 102.191 28.5103 102.497 28.0131C102.802 27.516 103.221 27.1307 103.754 26.8572C104.287 26.5803 104.892 26.4418 105.57 26.4418C106.256 26.4418 106.859 26.5785 107.381 26.8519C107.907 27.1218 108.317 27.4911 108.612 27.9599C108.907 28.4251 109.054 28.9506 109.054 29.5366C109.054 29.9414 108.978 30.3374 108.825 30.7244C108.676 31.1115 108.415 31.543 108.042 32.0188C107.669 32.4911 107.151 33.0646 106.487 33.7393L104.319 36.0085V36.0884H109.23V37.5H102.049ZM111.535 35.3693V34.0376L116.249 26.5909H117.299V28.5511H116.633L113.261 33.8885V33.9737H119.722V35.3693H111.535ZM116.707 37.5V34.9645L116.718 34.3572V26.5909H118.279V37.5H116.707ZM126.505 26.0795L122.989 39.1406H121.567L125.083 26.0795H126.505ZM128.954 37.5L133.716 28.0824V28.0025H128.208V26.5909H135.421V28.0504L130.675 37.5H128.954ZM151.953 30.1385H150.291C150.227 29.7834 150.108 29.4709 149.934 29.201C149.76 28.9311 149.547 28.7021 149.295 28.5138C149.042 28.3256 148.76 28.1836 148.448 28.0877C148.139 27.9918 147.81 27.9439 147.462 27.9439C146.834 27.9439 146.271 28.1019 145.774 28.418C145.28 28.734 144.889 29.1974 144.602 29.8082C144.318 30.419 144.176 31.1648 144.176 32.0455C144.176 32.9332 144.318 33.6825 144.602 34.2933C144.889 34.9041 145.282 35.3658 145.779 35.6783C146.276 35.9908 146.835 36.147 147.457 36.147C147.801 36.147 148.128 36.1009 148.437 36.0085C148.749 35.9126 149.032 35.7724 149.284 35.5877C149.536 35.4031 149.749 35.1776 149.923 34.9112C150.101 34.6413 150.223 34.3324 150.291 33.9844L151.953 33.9897C151.864 34.5259 151.692 35.0195 151.436 35.4705C151.184 35.918 150.859 36.305 150.461 36.6317C150.067 36.9549 149.616 37.2053 149.108 37.3828C148.6 37.5604 148.046 37.6491 147.446 37.6491C146.502 37.6491 145.66 37.4254 144.921 36.978C144.183 36.527 143.6 35.8825 143.174 35.0444C142.752 34.2063 142.54 33.2067 142.54 32.0455C142.54 30.8807 142.753 29.881 143.18 29.0465C143.606 28.2085 144.188 27.5657 144.927 27.1183C145.665 26.6673 146.505 26.4418 147.446 26.4418C148.025 26.4418 148.565 26.5252 149.066 26.6921C149.57 26.8555 150.023 27.0969 150.424 27.4165C150.825 27.7326 151.157 28.1197 151.42 28.5778C151.683 29.0323 151.86 29.5526 151.953 30.1385ZM161.687 26.5909H163.339V33.766C163.339 34.5295 163.159 35.206 162.801 35.7955C162.442 36.3814 161.938 36.843 161.288 37.1804C160.638 37.5142 159.876 37.6811 159.003 37.6811C158.133 37.6811 157.373 37.5142 156.723 37.1804C156.073 36.843 155.569 36.3814 155.21 35.7955C154.851 35.206 154.672 34.5295 154.672 33.766V26.5909H156.318V33.6328C156.318 34.1264 156.426 34.565 156.643 34.9485C156.863 35.332 157.174 35.6339 157.575 35.854C157.976 36.0707 158.452 36.179 159.003 36.179C159.557 36.179 160.034 36.0707 160.436 35.854C160.84 35.6339 161.149 35.332 161.362 34.9485C161.579 34.565 161.687 34.1264 161.687 33.6328V26.5909ZM172.432 29.4567C172.375 28.9524 172.14 28.5618 171.729 28.2848C171.317 28.0043 170.798 27.864 170.173 27.864C169.726 27.864 169.339 27.935 169.012 28.0771C168.685 28.2156 168.431 28.4073 168.25 28.6523C168.073 28.8938 167.984 29.169 167.984 29.478C167.984 29.7372 168.044 29.9609 168.165 30.1491C168.289 30.3374 168.451 30.4954 168.65 30.6232C168.852 30.7475 169.069 30.8523 169.3 30.9375C169.53 31.0192 169.752 31.0866 169.965 31.1399L171.031 31.4169C171.379 31.5021 171.736 31.6175 172.101 31.7631C172.467 31.9087 172.806 32.1005 173.119 32.3384C173.431 32.5763 173.683 32.8711 173.875 33.2227C174.07 33.5742 174.168 33.995 174.168 34.4851C174.168 35.103 174.008 35.6516 173.689 36.131C173.373 36.6104 172.913 36.9886 172.309 37.2656C171.709 37.5426 170.983 37.6811 170.131 37.6811C169.314 37.6811 168.607 37.5515 168.01 37.2923C167.414 37.033 166.947 36.6655 166.61 36.1896C166.272 35.7102 166.086 35.142 166.05 34.4851H167.702C167.733 34.8793 167.861 35.2077 168.085 35.4705C168.312 35.7298 168.602 35.9233 168.953 36.0511C169.308 36.1754 169.697 36.2376 170.12 36.2376C170.585 36.2376 170.999 36.1648 171.361 36.0192C171.727 35.87 172.014 35.6641 172.224 35.4013C172.433 35.1349 172.538 34.8242 172.538 34.4691C172.538 34.146 172.446 33.8814 172.261 33.6754C172.08 33.4695 171.833 33.299 171.521 33.1641C171.212 33.0291 170.862 32.9102 170.471 32.8072L169.182 32.4556C168.309 32.2177 167.616 31.8679 167.105 31.4062C166.597 30.9446 166.343 30.3338 166.343 29.5739C166.343 28.9453 166.514 28.3967 166.855 27.9279C167.195 27.4592 167.657 27.0952 168.24 26.8359C168.822 26.5732 169.479 26.4418 170.21 26.4418C170.949 26.4418 171.601 26.5714 172.165 26.8306C172.733 27.0898 173.181 27.4467 173.508 27.9013C173.834 28.3523 174.005 28.8707 174.019 29.4567H172.432ZM176.347 28.0078V26.5909H184.79V28.0078H181.386V37.5H179.745V28.0078H176.347ZM196.413 32.0455C196.413 33.2102 196.2 34.2116 195.774 35.0497C195.348 35.8842 194.763 36.527 194.021 36.978C193.283 37.4254 192.443 37.6491 191.502 37.6491C190.557 37.6491 189.714 37.4254 188.972 36.978C188.233 36.527 187.651 35.8825 187.224 35.0444C186.798 34.2063 186.585 33.2067 186.585 32.0455C186.585 30.8807 186.798 29.881 187.224 29.0465C187.651 28.2085 188.233 27.5657 188.972 27.1183C189.714 26.6673 190.557 26.4418 191.502 26.4418C192.443 26.4418 193.283 26.6673 194.021 27.1183C194.763 27.5657 195.348 28.2085 195.774 29.0465C196.2 29.881 196.413 30.8807 196.413 32.0455ZM194.783 32.0455C194.783 31.1577 194.639 30.4102 194.352 29.8029C194.067 29.1921 193.677 28.7305 193.18 28.418C192.686 28.1019 192.127 27.9439 191.502 27.9439C190.873 27.9439 190.312 28.1019 189.819 28.418C189.325 28.7305 188.934 29.1921 188.647 29.8029C188.363 30.4102 188.221 31.1577 188.221 32.0455C188.221 32.9332 188.363 33.6825 188.647 34.2933C188.934 34.9006 189.325 35.3622 189.819 35.6783C190.312 35.9908 190.873 36.147 191.502 36.147C192.127 36.147 192.686 35.9908 193.18 35.6783C193.677 35.3622 194.067 34.9006 194.352 34.2933C194.639 33.6825 194.783 32.9332 194.783 32.0455ZM199.215 26.5909H201.213L204.686 35.071H204.813L208.286 26.5909H210.284V37.5H208.718V29.6058H208.617L205.399 37.484H204.1L200.882 29.6005H200.781V37.5H199.215V26.5909ZM213.427 37.5V26.5909H220.267V28.0078H215.073V31.3317H219.91V32.7433H215.073V36.0831H220.33V37.5H213.427ZM223.215 37.5V26.5909H227.104C227.949 26.5909 228.65 26.7365 229.208 27.0277C229.769 27.3189 230.188 27.7219 230.465 28.2369C230.742 28.7482 230.88 29.3395 230.88 30.0107C230.88 30.6783 230.74 31.266 230.459 31.7738C230.182 32.2781 229.763 32.6705 229.202 32.951C228.645 33.2315 227.943 33.3718 227.098 33.3718H224.153V31.9549H226.949C227.482 31.9549 227.915 31.8786 228.249 31.7259C228.586 31.5732 228.833 31.3512 228.989 31.06C229.146 30.7688 229.224 30.419 229.224 30.0107C229.224 29.5987 229.144 29.2418 228.984 28.94C228.828 28.6381 228.581 28.4073 228.244 28.2475C227.91 28.0842 227.471 28.0025 226.928 28.0025H224.861V37.5H223.215ZM228.6 32.5781L231.296 37.5H229.421L226.779 32.5781H228.6ZM244.303 29.4567C244.246 28.9524 244.012 28.5618 243.6 28.2848C243.188 28.0043 242.669 27.864 242.044 27.864C241.597 27.864 241.21 27.935 240.883 28.0771C240.556 28.2156 240.302 28.4073 240.121 28.6523C239.944 28.8938 239.855 29.169 239.855 29.478C239.855 29.7372 239.915 29.9609 240.036 30.1491C240.16 30.3374 240.322 30.4954 240.521 30.6232C240.723 30.7475 240.94 30.8523 241.171 30.9375C241.401 31.0192 241.623 31.0866 241.836 31.1399L242.902 31.4169C243.25 31.5021 243.607 31.6175 243.972 31.7631C244.338 31.9087 244.677 32.1005 244.99 32.3384C245.302 32.5763 245.555 32.8711 245.746 33.2227C245.942 33.5742 246.039 33.995 246.039 34.4851C246.039 35.103 245.879 35.6516 245.56 36.131C245.244 36.6104 244.784 36.9886 244.18 37.2656C243.58 37.5426 242.854 37.6811 242.002 37.6811C241.185 37.6811 240.478 37.5515 239.882 37.2923C239.285 37.033 238.818 36.6655 238.481 36.1896C238.143 35.7102 237.957 35.142 237.921 34.4851H239.573C239.605 34.8793 239.732 35.2077 239.956 35.4705C240.183 35.7298 240.473 35.9233 240.824 36.0511C241.18 36.1754 241.568 36.2376 241.991 36.2376C242.456 36.2376 242.87 36.1648 243.232 36.0192C243.598 35.87 243.885 35.6641 244.095 35.4013C244.305 35.1349 244.409 34.8242 244.409 34.4691C244.409 34.146 244.317 33.8814 244.132 33.6754C243.951 33.4695 243.704 33.299 243.392 33.1641C243.083 33.0291 242.733 32.9102 242.343 32.8072L241.053 32.4556C240.18 32.2177 239.487 31.8679 238.976 31.4062C238.468 30.9446 238.214 30.3338 238.214 29.5739C238.214 28.9453 238.385 28.3967 238.726 27.9279C239.067 27.4592 239.528 27.0952 240.111 26.8359C240.693 26.5732 241.35 26.4418 242.081 26.4418C242.82 26.4418 243.472 26.5714 244.036 26.8306C244.605 27.0898 245.052 27.4467 245.379 27.9013C245.705 28.3523 245.876 28.8707 245.89 29.4567H244.303ZM255.771 26.5909H257.423V33.766C257.423 34.5295 257.243 35.206 256.885 35.7955C256.526 36.3814 256.022 36.843 255.372 37.1804C254.722 37.5142 253.96 37.6811 253.087 37.6811C252.217 37.6811 251.457 37.5142 250.807 37.1804C250.157 36.843 249.653 36.3814 249.294 35.7955C248.935 35.206 248.756 34.5295 248.756 33.766V26.5909H250.402V33.6328C250.402 34.1264 250.51 34.565 250.727 34.9485C250.947 35.332 251.258 35.6339 251.659 35.854C252.06 36.0707 252.536 36.179 253.087 36.179C253.641 36.179 254.118 36.0707 254.52 35.854C254.924 35.6339 255.233 35.332 255.446 34.9485C255.663 34.565 255.771 34.1264 255.771 33.6328V26.5909ZM260.566 37.5V26.5909H264.454C265.303 26.5909 266.006 26.7454 266.564 27.0543C267.121 27.3633 267.538 27.7859 267.815 28.3221C268.092 28.8548 268.231 29.4549 268.231 30.1225C268.231 30.7937 268.091 31.3974 267.81 31.9336C267.533 32.4663 267.114 32.8888 266.553 33.2013C265.995 33.5103 265.294 33.6648 264.449 33.6648H261.775V32.2692H264.3C264.836 32.2692 265.271 32.1768 265.605 31.9922C265.939 31.804 266.184 31.5483 266.34 31.2251C266.496 30.902 266.574 30.5344 266.574 30.1225C266.574 29.7106 266.496 29.3448 266.34 29.0252C266.184 28.7056 265.937 28.4553 265.599 28.2741C265.266 28.093 264.825 28.0025 264.278 28.0025H262.212V37.5H260.566ZM270.91 37.5V26.5909H274.799C275.648 26.5909 276.351 26.7454 276.908 27.0543C277.466 27.3633 277.883 27.7859 278.16 28.3221C278.437 28.8548 278.576 29.4549 278.576 30.1225C278.576 30.7937 278.435 31.3974 278.155 31.9336C277.878 32.4663 277.459 32.8888 276.898 33.2013C276.34 33.5103 275.639 33.6648 274.794 33.6648H272.12V32.2692H274.644C275.181 32.2692 275.616 32.1768 275.949 31.9922C276.283 31.804 276.528 31.5483 276.685 31.2251C276.841 30.902 276.919 30.5344 276.919 30.1225C276.919 29.7106 276.841 29.3448 276.685 29.0252C276.528 28.7056 276.282 28.4553 275.944 28.2741C275.61 28.093 275.17 28.0025 274.623 28.0025H272.556V37.5H270.91ZM290.731 32.0455C290.731 33.2102 290.518 34.2116 290.092 35.0497C289.666 35.8842 289.082 36.527 288.34 36.978C287.601 37.4254 286.761 37.6491 285.82 37.6491C284.876 37.6491 284.032 37.4254 283.29 36.978C282.551 36.527 281.969 35.8825 281.543 35.0444C281.117 34.2063 280.904 33.2067 280.904 32.0455C280.904 30.8807 281.117 29.881 281.543 29.0465C281.969 28.2085 282.551 27.5657 283.29 27.1183C284.032 26.6673 284.876 26.4418 285.82 26.4418C286.761 26.4418 287.601 26.6673 288.34 27.1183C289.082 27.5657 289.666 28.2085 290.092 29.0465C290.518 29.881 290.731 30.8807 290.731 32.0455ZM289.101 32.0455C289.101 31.1577 288.958 30.4102 288.67 29.8029C288.386 29.1921 287.995 28.7305 287.498 28.418C287.004 28.1019 286.445 27.9439 285.82 27.9439C285.192 27.9439 284.631 28.1019 284.137 28.418C283.643 28.7305 283.253 29.1921 282.965 29.8029C282.681 30.4102 282.539 31.1577 282.539 32.0455C282.539 32.9332 282.681 33.6825 282.965 34.2933C283.253 34.9006 283.643 35.3622 284.137 35.6783C284.631 35.9908 285.192 36.147 285.82 36.147C286.445 36.147 287.004 35.9908 287.498 35.6783C287.995 35.3622 288.386 34.9006 288.67 34.2933C288.958 33.6825 289.101 32.9332 289.101 32.0455ZM293.533 37.5V26.5909H297.422C298.267 26.5909 298.968 26.7365 299.526 27.0277C300.087 27.3189 300.506 27.7219 300.783 28.2369C301.06 28.7482 301.199 29.3395 301.199 30.0107C301.199 30.6783 301.058 31.266 300.778 31.7738C300.501 32.2781 300.082 32.6705 299.521 32.951C298.963 33.2315 298.262 33.3718 297.417 33.3718H294.471V31.9549H297.267C297.8 31.9549 298.233 31.8786 298.567 31.7259C298.905 31.5732 299.151 31.3512 299.308 31.06C299.464 30.7688 299.542 30.419 299.542 30.0107C299.542 29.5987 299.462 29.2418 299.302 28.94C299.146 28.6381 298.899 28.4073 298.562 28.2475C298.228 28.0842 297.79 28.0025 297.246 28.0025H295.179V37.5H293.533ZM298.919 32.5781L301.614 37.5H299.739L297.097 32.5781H298.919ZM303.413 28.0078V26.5909H311.856V28.0078H308.453V37.5H306.812V28.0078H303.413Z" fill="white"/>
</svg>
