<svg width="360" height="65" viewBox="0 0 360 65" fill="none" xmlns="http://www.w3.org/2000/svg">
<rect x="16" width="65" height="65" rx="24" fill="black" fill-opacity="0.41"/>
<path d="M50.8684 40H46.2543M50.8684 40H53.0068M50.8684 40L53.3553 26.5M40.252 40H40.0433C38.1888 40 36.7781 38.3354 37.083 36.5068L38.0011 31M35 22H39.5017M39.5017 22H50.58C52.4551 22 53.8711 23.6998 53.5315 25.5433L53.3553 26.5M39.5017 22L38.7514 26.5M53.3553 26.5H57.6966C58.1895 26.5 58.6793 26.6142 59.096 26.8773C60.365 27.6784 62 29.0986 62 31C62 32.2777 61.9675 34.7253 61.9651 36.89C61.9631 38.5895 60.5881 40 58.8879 40H58.4474M38.0011 31L38.7514 26.5M38.0011 31H36.5006M38.7514 26.5H36.5006M45.504 40.75C45.504 41.9926 44.4963 43 43.2531 43C42.01 43 41.0023 41.9926 41.0023 40.75C41.0023 39.5074 42.01 38.5 43.2531 38.5C44.4963 38.5 45.504 39.5074 45.504 40.75ZM57.5086 40.75C57.5086 41.9926 56.5008 43 55.2577 43C54.0146 43 53.0068 41.9926 53.0068 40.75C53.0068 39.5074 54.0146 38.5 55.2577 38.5C56.5008 38.5 57.5086 39.5074 57.5086 40.75Z" stroke="#525252" stroke-width="2" stroke-linecap="round" stroke-linejoin="round"/>
<path d="M102.199 37.5V26.5909H108.963V28.0078H103.844V31.3317H108.479V32.7433H103.844V37.5H102.199ZM111.297 37.5H109.55L113.475 26.5909H115.377L119.303 37.5H117.556L114.472 28.5724H114.386L111.297 37.5ZM111.59 33.228H117.257V34.6129H111.59V33.228ZM127.49 29.4567C127.433 28.9524 127.199 28.5618 126.787 28.2848C126.375 28.0043 125.857 27.864 125.232 27.864C124.784 27.864 124.397 27.935 124.07 28.0771C123.744 28.2156 123.49 28.4073 123.309 28.6523C123.131 28.8938 123.042 29.169 123.042 29.478C123.042 29.7372 123.103 29.9609 123.224 30.1491C123.348 30.3374 123.509 30.4954 123.708 30.6232C123.911 30.7475 124.127 30.8523 124.358 30.9375C124.589 31.0192 124.811 31.0866 125.024 31.1399L126.089 31.4169C126.437 31.5021 126.794 31.6175 127.16 31.7631C127.526 31.9087 127.865 32.1005 128.177 32.3384C128.49 32.5763 128.742 32.8711 128.934 33.2227C129.129 33.5742 129.227 33.995 129.227 34.4851C129.227 35.103 129.067 35.6516 128.747 36.131C128.431 36.6104 127.971 36.9886 127.368 37.2656C126.768 37.5426 126.041 37.6811 125.189 37.6811C124.372 37.6811 123.666 37.5515 123.069 37.2923C122.472 37.033 122.006 36.6655 121.668 36.1896C121.331 35.7102 121.144 35.142 121.109 34.4851H122.76C122.792 34.8793 122.92 35.2077 123.144 35.4705C123.371 35.7298 123.66 35.9233 124.012 36.0511C124.367 36.1754 124.756 36.2376 125.178 36.2376C125.644 36.2376 126.057 36.1648 126.42 36.0192C126.785 35.87 127.073 35.6641 127.282 35.4013C127.492 35.1349 127.597 34.8242 127.597 34.4691C127.597 34.146 127.504 33.8814 127.32 33.6754C127.139 33.4695 126.892 33.299 126.579 33.1641C126.27 33.0291 125.921 32.9102 125.53 32.8072L124.241 32.4556C123.367 32.2177 122.675 31.8679 122.164 31.4062C121.656 30.9446 121.402 30.3338 121.402 29.5739C121.402 28.9453 121.572 28.3967 121.913 27.9279C122.254 27.4592 122.716 27.0952 123.298 26.8359C123.881 26.5732 124.537 26.4418 125.269 26.4418C126.008 26.4418 126.659 26.5714 127.224 26.8306C127.792 27.0898 128.24 27.4467 128.566 27.9013C128.893 28.3523 129.063 28.8707 129.078 29.4567H127.49ZM131.406 28.0078V26.5909H139.848V28.0078H136.445V37.5H134.804V28.0078H131.406ZM150.715 37.5H147.184V26.5909H150.827C151.896 26.5909 152.814 26.8093 153.581 27.2461C154.348 27.6793 154.936 28.3026 155.344 29.1158C155.756 29.9254 155.962 30.8967 155.962 32.0295C155.962 33.1658 155.755 34.1424 155.339 34.9592C154.927 35.7759 154.331 36.4045 153.549 36.8448C152.768 37.2816 151.823 37.5 150.715 37.5ZM148.83 36.0618H150.625C151.456 36.0618 152.147 35.9055 152.697 35.593C153.247 35.277 153.659 34.8207 153.933 34.2241C154.206 33.6239 154.343 32.8924 154.343 32.0295C154.343 31.1737 154.206 30.4474 153.933 29.8509C153.663 29.2543 153.26 28.8015 152.724 28.4925C152.187 28.1836 151.522 28.0291 150.726 28.0291H148.83V36.0618ZM160.405 26.5909V37.5H158.759V26.5909H160.405ZM169.502 29.4567C169.445 28.9524 169.211 28.5618 168.799 28.2848C168.387 28.0043 167.868 27.864 167.243 27.864C166.796 27.864 166.409 27.935 166.082 28.0771C165.756 28.2156 165.502 28.4073 165.32 28.6523C165.143 28.8938 165.054 29.169 165.054 29.478C165.054 29.7372 165.115 29.9609 165.235 30.1491C165.36 30.3374 165.521 30.4954 165.72 30.6232C165.922 30.7475 166.139 30.8523 166.37 30.9375C166.601 31.0192 166.823 31.0866 167.036 31.1399L168.101 31.4169C168.449 31.5021 168.806 31.6175 169.172 31.7631C169.537 31.9087 169.877 32.1005 170.189 32.3384C170.502 32.5763 170.754 32.8711 170.945 33.2227C171.141 33.5742 171.238 33.995 171.238 34.4851C171.238 35.103 171.079 35.6516 170.759 36.131C170.443 36.6104 169.983 36.9886 169.379 37.2656C168.779 37.5426 168.053 37.6811 167.201 37.6811C166.384 37.6811 165.677 37.5515 165.081 37.2923C164.484 37.033 164.017 36.6655 163.68 36.1896C163.343 35.7102 163.156 35.142 163.121 34.4851H164.772C164.804 34.8793 164.932 35.2077 165.155 35.4705C165.383 35.7298 165.672 35.9233 166.024 36.0511C166.379 36.1754 166.768 36.2376 167.19 36.2376C167.655 36.2376 168.069 36.1648 168.431 36.0192C168.797 35.87 169.085 35.6641 169.294 35.4013C169.504 35.1349 169.608 34.8242 169.608 34.4691C169.608 34.146 169.516 33.8814 169.331 33.6754C169.15 33.4695 168.904 33.299 168.591 33.1641C168.282 33.0291 167.932 32.9102 167.542 32.8072L166.253 32.4556C165.379 32.2177 164.687 31.8679 164.175 31.4062C163.667 30.9446 163.414 30.3338 163.414 29.5739C163.414 28.9453 163.584 28.3967 163.925 27.9279C164.266 27.4592 164.727 27.0952 165.31 26.8359C165.892 26.5732 166.549 26.4418 167.281 26.4418C168.019 26.4418 168.671 26.5714 169.236 26.8306C169.804 27.0898 170.251 27.4467 170.578 27.9013C170.905 28.3523 171.075 28.8707 171.089 29.4567H169.502ZM173.955 37.5V26.5909H177.844C178.693 26.5909 179.396 26.7454 179.953 27.0543C180.511 27.3633 180.928 27.7859 181.205 28.3221C181.482 28.8548 181.62 29.4549 181.62 30.1225C181.62 30.7937 181.48 31.3974 181.2 31.9336C180.923 32.4663 180.504 32.8888 179.943 33.2013C179.385 33.5103 178.684 33.6648 177.839 33.6648H175.165V32.2692H177.689C178.226 32.2692 178.661 32.1768 178.994 31.9922C179.328 31.804 179.573 31.5483 179.729 31.2251C179.886 30.902 179.964 30.5344 179.964 30.1225C179.964 29.7106 179.886 29.3448 179.729 29.0252C179.573 28.7056 179.326 28.4553 178.989 28.2741C178.655 28.093 178.215 28.0025 177.668 28.0025H175.601V37.5H173.955ZM184.064 37.5H182.317L186.243 26.5909H188.145L192.07 37.5H190.323L187.239 28.5724H187.154L184.064 37.5ZM184.357 33.228H190.025V34.6129H184.357V33.228ZM192.569 28.0078V26.5909H201.012V28.0078H197.608V37.5H195.967V28.0078H192.569ZM212.219 30.1385H210.557C210.493 29.7834 210.374 29.4709 210.2 29.201C210.026 28.9311 209.813 28.7021 209.561 28.5138C209.309 28.3256 209.027 28.1836 208.714 28.0877C208.405 27.9918 208.077 27.9439 207.729 27.9439C207.1 27.9439 206.537 28.1019 206.04 28.418C205.547 28.734 205.156 29.1974 204.868 29.8082C204.584 30.419 204.442 31.1648 204.442 32.0455C204.442 32.9332 204.584 33.6825 204.868 34.2933C205.156 34.9041 205.548 35.3658 206.046 35.6783C206.543 35.9908 207.102 36.147 207.723 36.147C208.068 36.147 208.395 36.1009 208.704 36.0085C209.016 35.9126 209.298 35.7724 209.551 35.5877C209.803 35.4031 210.016 35.1776 210.19 34.9112C210.367 34.6413 210.49 34.3324 210.557 33.9844L212.219 33.9897C212.13 34.5259 211.958 35.0195 211.703 35.4705C211.45 35.918 211.125 36.305 210.728 36.6317C210.334 36.9549 209.883 37.2053 209.375 37.3828C208.867 37.5604 208.313 37.6491 207.713 37.6491C206.768 37.6491 205.927 37.4254 205.188 36.978C204.449 36.527 203.867 35.8825 203.441 35.0444C203.018 34.2063 202.807 33.2067 202.807 32.0455C202.807 30.8807 203.02 29.881 203.446 29.0465C203.872 28.2085 204.455 27.5657 205.193 27.1183C205.932 26.6673 206.772 26.4418 207.713 26.4418C208.292 26.4418 208.831 26.5252 209.332 26.6921C209.836 26.8555 210.289 27.0969 210.69 27.4165C211.092 27.7326 211.424 28.1197 211.687 28.5778C211.949 29.0323 212.127 29.5526 212.219 30.1385ZM214.939 37.5V26.5909H216.585V31.3317H222.023V26.5909H223.675V37.5H222.023V32.7433H216.585V37.5H214.939Z" fill="white"/>
</svg>
