<svg width="360" height="65" viewBox="0 0 360 65" fill="none" xmlns="http://www.w3.org/2000/svg">
<rect x="16" width="65" height="65" rx="24" fill="black" fill-opacity="0.41"/>
<path d="M48.5 44.5C55.1274 44.5 60.5 39.1274 60.5 32.5C60.5 29.3044 59.2509 26.4005 57.2143 24.25M48.5 44.5L53.75 46M48.5 44.5L51.5 40M48.5 20.5C41.8726 20.5 36.5 25.8726 36.5 32.5C36.5 35.9318 37.9406 39.0271 40.25 41.2143M48.5 20.5L45.5 25M48.5 20.5L42.5 19" stroke="#525252" stroke-width="2" stroke-linecap="round" stroke-linejoin="round"/>
<path d="M102.199 37.5V26.5909H109.038V28.0078H103.844V31.3317H108.681V32.7433H103.844V36.0831H109.102V37.5H102.199ZM112.908 37.5H111.161L115.087 26.5909H116.988L120.914 37.5H119.167L116.083 28.5724H115.998L112.908 37.5ZM113.201 33.228H118.869V34.6129H113.201V33.228ZM129.102 29.4567C129.045 28.9524 128.81 28.5618 128.398 28.2848C127.987 28.0043 127.468 27.864 126.843 27.864C126.396 27.864 126.009 27.935 125.682 28.0771C125.355 28.2156 125.101 28.4073 124.92 28.6523C124.743 28.8938 124.654 29.169 124.654 29.478C124.654 29.7372 124.714 29.9609 124.835 30.1491C124.959 30.3374 125.121 30.4954 125.32 30.6232C125.522 30.7475 125.739 30.8523 125.969 30.9375C126.2 31.0192 126.422 31.0866 126.635 31.1399L127.701 31.4169C128.049 31.5021 128.406 31.6175 128.771 31.7631C129.137 31.9087 129.476 32.1005 129.789 32.3384C130.101 32.5763 130.353 32.8711 130.545 33.2227C130.74 33.5742 130.838 33.995 130.838 34.4851C130.838 35.103 130.678 35.6516 130.359 36.131C130.043 36.6104 129.583 36.9886 128.979 37.2656C128.379 37.5426 127.653 37.6811 126.8 37.6811C125.984 37.6811 125.277 37.5515 124.68 37.2923C124.084 37.033 123.617 36.6655 123.279 36.1896C122.942 35.7102 122.756 35.142 122.72 34.4851H124.371C124.403 34.8793 124.531 35.2077 124.755 35.4705C124.982 35.7298 125.272 35.9233 125.623 36.0511C125.978 36.1754 126.367 36.2376 126.79 36.2376C127.255 36.2376 127.669 36.1648 128.031 36.0192C128.397 35.87 128.684 35.6641 128.894 35.4013C129.103 35.1349 129.208 34.8242 129.208 34.4691C129.208 34.146 129.116 33.8814 128.931 33.6754C128.75 33.4695 128.503 33.299 128.191 33.1641C127.882 33.0291 127.532 32.9102 127.141 32.8072L125.852 32.4556C124.979 32.2177 124.286 31.8679 123.775 31.4062C123.267 30.9446 123.013 30.3338 123.013 29.5739C123.013 28.9453 123.184 28.3967 123.525 27.9279C123.865 27.4592 124.327 27.0952 124.909 26.8359C125.492 26.5732 126.149 26.4418 126.88 26.4418C127.619 26.4418 128.271 26.5714 128.835 26.8306C129.403 27.0898 129.851 27.4467 130.178 27.9013C130.504 28.3523 130.675 28.8707 130.689 29.4567H129.102ZM132.713 26.5909H134.583L137.433 31.5501H137.55L140.4 26.5909H142.269L138.312 33.2173V37.5H136.671V33.2173L132.713 26.5909ZM149.293 37.5V26.5909H153.182C154.027 26.5909 154.728 26.7365 155.286 27.0277C155.847 27.3189 156.266 27.7219 156.543 28.2369C156.82 28.7482 156.958 29.3395 156.958 30.0107C156.958 30.6783 156.818 31.266 156.538 31.7738C156.261 32.2781 155.842 32.6705 155.28 32.951C154.723 33.2315 154.022 33.3718 153.176 33.3718H150.231V31.9549H153.027C153.56 31.9549 153.993 31.8786 154.327 31.7259C154.664 31.5732 154.911 31.3512 155.067 31.06C155.224 30.7688 155.302 30.419 155.302 30.0107C155.302 29.5987 155.222 29.2418 155.062 28.94C154.906 28.6381 154.659 28.4073 154.322 28.2475C153.988 28.0842 153.549 28.0025 153.006 28.0025H150.939V37.5H149.293ZM154.679 32.5781L157.374 37.5H155.499L152.857 32.5781H154.679ZM159.711 37.5V26.5909H166.551V28.0078H161.357V31.3317H166.194V32.7433H161.357V36.0831H166.615V37.5H159.711ZM168.961 28.0078V26.5909H177.404V28.0078H174V37.5H172.36V28.0078H168.961ZM187.035 26.5909H188.686V33.766C188.686 34.5295 188.507 35.206 188.148 35.7955C187.79 36.3814 187.285 36.843 186.636 37.1804C185.986 37.5142 185.224 37.6811 184.35 37.6811C183.48 37.6811 182.72 37.5142 182.071 37.1804C181.421 36.843 180.916 36.3814 180.558 35.7955C180.199 35.206 180.02 34.5295 180.02 33.766V26.5909H181.666V33.6328C181.666 34.1264 181.774 34.565 181.991 34.9485C182.211 35.332 182.522 35.6339 182.923 35.854C183.324 36.0707 183.8 36.179 184.35 36.179C184.904 36.179 185.382 36.0707 185.783 35.854C186.188 35.6339 186.497 35.332 186.71 34.9485C186.927 34.565 187.035 34.1264 187.035 33.6328V26.5909ZM191.829 37.5V26.5909H195.718C196.563 26.5909 197.264 26.7365 197.822 27.0277C198.383 27.3189 198.802 27.7219 199.079 28.2369C199.356 28.7482 199.494 29.3395 199.494 30.0107C199.494 30.6783 199.354 31.266 199.074 31.7738C198.797 32.2781 198.378 32.6705 197.817 32.951C197.259 33.2315 196.558 33.3718 195.713 33.3718H192.767V31.9549H195.563C196.096 31.9549 196.529 31.8786 196.863 31.7259C197.2 31.5732 197.447 31.3512 197.604 31.06C197.76 30.7688 197.838 30.419 197.838 30.0107C197.838 29.5987 197.758 29.2418 197.598 28.94C197.442 28.6381 197.195 28.4073 196.858 28.2475C196.524 28.0842 196.085 28.0025 195.542 28.0025H193.475V37.5H191.829ZM197.215 32.5781L199.91 37.5H198.035L195.393 32.5781H197.215ZM211.052 26.5909V37.5H209.54L203.994 29.4993H203.893V37.5H202.247V26.5909H203.771L209.321 34.6023H209.422V26.5909H211.052ZM220.153 29.4567C220.097 28.9524 219.862 28.5618 219.45 28.2848C219.038 28.0043 218.52 27.864 217.895 27.864C217.447 27.864 217.06 27.935 216.734 28.0771C216.407 28.2156 216.153 28.4073 215.972 28.6523C215.794 28.8938 215.706 29.169 215.706 29.478C215.706 29.7372 215.766 29.9609 215.887 30.1491C216.011 30.3374 216.172 30.4954 216.371 30.6232C216.574 30.7475 216.79 30.8523 217.021 30.9375C217.252 31.0192 217.474 31.0866 217.687 31.1399L218.752 31.4169C219.1 31.5021 219.457 31.6175 219.823 31.7631C220.189 31.9087 220.528 32.1005 220.84 32.3384C221.153 32.5763 221.405 32.8711 221.597 33.2227C221.792 33.5742 221.89 33.995 221.89 34.4851C221.89 35.103 221.73 35.6516 221.41 36.131C221.094 36.6104 220.634 36.9886 220.031 37.2656C219.431 37.5426 218.704 37.6811 217.852 37.6811C217.035 37.6811 216.329 37.5515 215.732 37.2923C215.136 37.033 214.669 36.6655 214.331 36.1896C213.994 35.7102 213.807 35.142 213.772 34.4851H215.423C215.455 34.8793 215.583 35.2077 215.807 35.4705C216.034 35.7298 216.323 35.9233 216.675 36.0511C217.03 36.1754 217.419 36.2376 217.842 36.2376C218.307 36.2376 218.72 36.1648 219.083 36.0192C219.448 35.87 219.736 35.6641 219.946 35.4013C220.155 35.1349 220.26 34.8242 220.26 34.4691C220.26 34.146 220.168 33.8814 219.983 33.6754C219.802 33.4695 219.555 33.299 219.242 33.1641C218.934 33.0291 218.584 32.9102 218.193 32.8072L216.904 32.4556C216.03 32.2177 215.338 31.8679 214.827 31.4062C214.319 30.9446 214.065 30.3338 214.065 29.5739C214.065 28.9453 214.235 28.3967 214.576 27.9279C214.917 27.4592 215.379 27.0952 215.961 26.8359C216.544 26.5732 217.201 26.4418 217.932 26.4418C218.671 26.4418 219.322 26.5714 219.887 26.8306C220.455 27.0898 220.903 27.4467 221.229 27.9013C221.556 28.3523 221.726 28.8707 221.741 29.4567H220.153Z" fill="white"/>
</svg>
