<svg width="360" height="65" viewBox="0 0 360 65" fill="none" xmlns="http://www.w3.org/2000/svg">
<rect x="16" width="65" height="65" rx="24" fill="black" fill-opacity="0.41"/>
<path d="M48.8438 19C48.8438 19 51.4267 23.1436 54.2328 24.0233C56.2302 24.6494 59.6218 24.0233 59.6218 24.0233C59.6218 24.0233 61.5977 32.0463 59.6218 36.5814C57.4395 41.5903 48.8438 46 48.8438 46C48.8438 46 39.6849 41.7473 37.3922 36.5814C35.3848 32.0586 37.3922 24.0233 37.3922 24.0233C37.3922 24.0233 41.2259 24.7776 43.4548 24.0233C46.2381 23.0813 48.8438 19 48.8438 19Z" stroke="#525252" stroke-width="2" stroke-linejoin="round"/>
<path d="M108.148 29.4567C108.092 28.9524 107.857 28.5618 107.445 28.2848C107.033 28.0043 106.515 27.864 105.89 27.864C105.442 27.864 105.055 27.935 104.729 28.0771C104.402 28.2156 104.148 28.4073 103.967 28.6523C103.789 28.8938 103.701 29.169 103.701 29.478C103.701 29.7372 103.761 29.9609 103.882 30.1491C104.006 30.3374 104.168 30.4954 104.366 30.6232C104.569 30.7475 104.786 30.8523 105.016 30.9375C105.247 31.0192 105.469 31.0866 105.682 31.1399L106.748 31.4169C107.096 31.5021 107.452 31.6175 107.818 31.7631C108.184 31.9087 108.523 32.1005 108.836 32.3384C109.148 32.5763 109.4 32.8711 109.592 33.2227C109.787 33.5742 109.885 33.995 109.885 34.4851C109.885 35.103 109.725 35.6516 109.406 36.131C109.089 36.6104 108.63 36.9886 108.026 37.2656C107.426 37.5426 106.7 37.6811 105.847 37.6811C105.031 37.6811 104.324 37.5515 103.727 37.2923C103.131 37.033 102.664 36.6655 102.326 36.1896C101.989 35.7102 101.803 35.142 101.767 34.4851H103.418C103.45 34.8793 103.578 35.2077 103.802 35.4705C104.029 35.7298 104.319 35.9233 104.67 36.0511C105.025 36.1754 105.414 36.2376 105.837 36.2376C106.302 36.2376 106.716 36.1648 107.078 36.0192C107.444 35.87 107.731 35.6641 107.941 35.4013C108.15 35.1349 108.255 34.8242 108.255 34.4691C108.255 34.146 108.163 33.8814 107.978 33.6754C107.797 33.4695 107.55 33.299 107.238 33.1641C106.929 33.0291 106.579 32.9102 106.188 32.8072L104.899 32.4556C104.026 32.2177 103.333 31.8679 102.822 31.4062C102.314 30.9446 102.06 30.3338 102.06 29.5739C102.06 28.9453 102.23 28.3967 102.571 27.9279C102.912 27.4592 103.374 27.0952 103.956 26.8359C104.539 26.5732 105.196 26.4418 105.927 26.4418C106.666 26.4418 107.317 26.5714 107.882 26.8306C108.45 27.0898 108.898 27.4467 109.224 27.9013C109.551 28.3523 109.722 28.8707 109.736 29.4567H108.148ZM112.602 37.5V26.5909H119.441V28.0078H114.248V31.3317H119.084V32.7433H114.248V36.0831H119.505V37.5H112.602ZM131.451 30.1385H129.789C129.725 29.7834 129.606 29.4709 129.432 29.201C129.258 28.9311 129.045 28.7021 128.793 28.5138C128.54 28.3256 128.258 28.1836 127.946 28.0877C127.637 27.9918 127.308 27.9439 126.96 27.9439C126.332 27.9439 125.769 28.1019 125.272 28.418C124.778 28.734 124.387 29.1974 124.1 29.8082C123.816 30.419 123.674 31.1648 123.674 32.0455C123.674 32.9332 123.816 33.6825 124.1 34.2933C124.387 34.9041 124.78 35.3658 125.277 35.6783C125.774 35.9908 126.333 36.147 126.955 36.147C127.299 36.147 127.626 36.1009 127.935 36.0085C128.248 35.9126 128.53 35.7724 128.782 35.5877C129.034 35.4031 129.247 35.1776 129.421 34.9112C129.599 34.6413 129.721 34.3324 129.789 33.9844L131.451 33.9897C131.362 34.5259 131.19 35.0195 130.934 35.4705C130.682 35.918 130.357 36.305 129.959 36.6317C129.565 36.9549 129.114 37.2053 128.606 37.3828C128.098 37.5604 127.544 37.6491 126.944 37.6491C126 37.6491 125.158 37.4254 124.419 36.978C123.681 36.527 123.098 35.8825 122.672 35.0444C122.25 34.2063 122.038 33.2067 122.038 32.0455C122.038 30.8807 122.251 29.881 122.678 29.0465C123.104 28.2085 123.686 27.5657 124.425 27.1183C125.163 26.6673 126.003 26.4418 126.944 26.4418C127.523 26.4418 128.063 26.5252 128.564 26.6921C129.068 26.8555 129.521 27.0969 129.922 27.4165C130.323 27.7326 130.655 28.1197 130.918 28.5778C131.181 29.0323 131.358 29.5526 131.451 30.1385ZM141.185 26.5909H142.837V33.766C142.837 34.5295 142.657 35.206 142.299 35.7955C141.94 36.3814 141.436 36.843 140.786 37.1804C140.136 37.5142 139.374 37.6811 138.501 37.6811C137.631 37.6811 136.871 37.5142 136.221 37.1804C135.571 36.843 135.067 36.3814 134.708 35.7955C134.35 35.206 134.17 34.5295 134.17 33.766V26.5909H135.816V33.6328C135.816 34.1264 135.924 34.565 136.141 34.9485C136.361 35.332 136.672 35.6339 137.073 35.854C137.475 36.0707 137.95 36.179 138.501 36.179C139.055 36.179 139.532 36.0707 139.934 35.854C140.339 35.6339 140.647 35.332 140.861 34.9485C141.077 34.565 141.185 34.1264 141.185 33.6328V26.5909ZM145.98 37.5V26.5909H149.868C150.713 26.5909 151.415 26.7365 151.972 27.0277C152.533 27.3189 152.952 27.7219 153.229 28.2369C153.506 28.7482 153.645 29.3395 153.645 30.0107C153.645 30.6783 153.505 31.266 153.224 31.7738C152.947 32.2781 152.528 32.6705 151.967 32.951C151.409 33.2315 150.708 33.3718 149.863 33.3718H146.917V31.9549H149.714C150.246 31.9549 150.68 31.8786 151.013 31.7259C151.351 31.5732 151.598 31.3512 151.754 31.06C151.91 30.7688 151.988 30.419 151.988 30.0107C151.988 29.5987 151.908 29.2418 151.749 28.94C151.592 28.6381 151.346 28.4073 151.008 28.2475C150.674 28.0842 150.236 28.0025 149.692 28.0025H147.626V37.5H145.98ZM151.365 32.5781L154.06 37.5H152.185L149.543 32.5781H151.365ZM156.398 37.5V26.5909H163.237V28.0078H158.044V31.3317H162.88V32.7433H158.044V36.0831H163.301V37.5H156.398ZM179.966 30.1385H178.304C178.24 29.7834 178.121 29.4709 177.947 29.201C177.773 28.9311 177.56 28.7021 177.308 28.5138C177.056 28.3256 176.774 28.1836 176.461 28.0877C176.152 27.9918 175.824 27.9439 175.476 27.9439C174.847 27.9439 174.284 28.1019 173.787 28.418C173.294 28.734 172.903 29.1974 172.615 29.8082C172.331 30.419 172.189 31.1648 172.189 32.0455C172.189 32.9332 172.331 33.6825 172.615 34.2933C172.903 34.9041 173.295 35.3658 173.793 35.6783C174.29 35.9908 174.849 36.147 175.471 36.147C175.815 36.147 176.142 36.1009 176.451 36.0085C176.763 35.9126 177.045 35.7724 177.298 35.5877C177.55 35.4031 177.763 35.1776 177.937 34.9112C178.114 34.6413 178.237 34.3324 178.304 33.9844L179.966 33.9897C179.877 34.5259 179.705 35.0195 179.45 35.4705C179.197 35.918 178.873 36.305 178.475 36.6317C178.081 36.9549 177.63 37.2053 177.122 37.3828C176.614 37.5604 176.06 37.6491 175.46 37.6491C174.515 37.6491 173.674 37.4254 172.935 36.978C172.196 36.527 171.614 35.8825 171.188 35.0444C170.765 34.2063 170.554 33.2067 170.554 32.0455C170.554 30.8807 170.767 29.881 171.193 29.0465C171.619 28.2085 172.202 27.5657 172.94 27.1183C173.679 26.6673 174.519 26.4418 175.46 26.4418C176.039 26.4418 176.578 26.5252 177.079 26.6921C177.583 26.8555 178.036 27.0969 178.438 27.4165C178.839 27.7326 179.171 28.1197 179.434 28.5778C179.696 29.0323 179.874 29.5526 179.966 30.1385ZM182.686 37.5V26.5909H184.332V31.3317H189.77V26.5909H191.422V37.5H189.77V32.7433H184.332V37.5H182.686ZM194.569 37.5V26.5909H201.408V28.0078H196.215V31.3317H201.051V32.7433H196.215V36.0831H201.472V37.5H194.569ZM213.417 30.1385H211.756C211.692 29.7834 211.573 29.4709 211.399 29.201C211.225 28.9311 211.012 28.7021 210.759 28.5138C210.507 28.3256 210.225 28.1836 209.912 28.0877C209.604 27.9918 209.275 27.9439 208.927 27.9439C208.298 27.9439 207.736 28.1019 207.238 28.418C206.745 28.734 206.354 29.1974 206.067 29.8082C205.782 30.419 205.64 31.1648 205.64 32.0455C205.64 32.9332 205.782 33.6825 206.067 34.2933C206.354 34.9041 206.747 35.3658 207.244 35.6783C207.741 35.9908 208.3 36.147 208.922 36.147C209.266 36.147 209.593 36.1009 209.902 36.0085C210.214 35.9126 210.497 35.7724 210.749 35.5877C211.001 35.4031 211.214 35.1776 211.388 34.9112C211.566 34.6413 211.688 34.3324 211.756 33.9844L213.417 33.9897C213.329 34.5259 213.156 35.0195 212.901 35.4705C212.649 35.918 212.324 36.305 211.926 36.6317C211.532 36.9549 211.081 37.2053 210.573 37.3828C210.065 37.5604 209.511 37.6491 208.911 37.6491C207.966 37.6491 207.125 37.4254 206.386 36.978C205.648 36.527 205.065 35.8825 204.639 35.0444C204.216 34.2063 204.005 33.2067 204.005 32.0455C204.005 30.8807 204.218 29.881 204.644 29.0465C205.07 28.2085 205.653 27.5657 206.392 27.1183C207.13 26.6673 207.97 26.4418 208.911 26.4418C209.49 26.4418 210.03 26.5252 210.53 26.6921C211.035 26.8555 211.487 27.0969 211.889 27.4165C212.29 27.7326 212.622 28.1197 212.885 28.5778C213.148 29.0323 213.325 29.5526 213.417 30.1385ZM216.137 37.5V26.5909H217.783V31.8004H217.916L222.492 26.5909H224.564L220.164 31.5021L224.58 37.5H222.598L219.072 32.6261L217.783 34.1069V37.5H216.137ZM235.782 32.0455C235.782 33.2102 235.569 34.2116 235.143 35.0497C234.717 35.8842 234.133 36.527 233.39 36.978C232.652 37.4254 231.812 37.6491 230.871 37.6491C229.926 37.6491 229.083 37.4254 228.341 36.978C227.602 36.527 227.02 35.8825 226.594 35.0444C226.167 34.2063 225.954 33.2067 225.954 32.0455C225.954 30.8807 226.167 29.881 226.594 29.0465C227.02 28.2085 227.602 27.5657 228.341 27.1183C229.083 26.6673 229.926 26.4418 230.871 26.4418C231.812 26.4418 232.652 26.6673 233.39 27.1183C234.133 27.5657 234.717 28.2085 235.143 29.0465C235.569 29.881 235.782 30.8807 235.782 32.0455ZM234.152 32.0455C234.152 31.1577 234.008 30.4102 233.721 29.8029C233.437 29.1921 233.046 28.7305 232.549 28.418C232.055 28.1019 231.496 27.9439 230.871 27.9439C230.242 27.9439 229.681 28.1019 229.188 28.418C228.694 28.7305 228.303 29.1921 228.016 29.8029C227.732 30.4102 227.59 31.1577 227.59 32.0455C227.59 32.9332 227.732 33.6825 228.016 34.2933C228.303 34.9006 228.694 35.3622 229.188 35.6783C229.681 35.9908 230.242 36.147 230.871 36.147C231.496 36.147 232.055 35.9908 232.549 35.6783C233.046 35.3622 233.437 34.9006 233.721 34.2933C234.008 33.6825 234.152 32.9332 234.152 32.0455ZM245.6 26.5909H247.251V33.766C247.251 34.5295 247.071 35.206 246.713 35.7955C246.354 36.3814 245.85 36.843 245.2 37.1804C244.55 37.5142 243.788 37.6811 242.915 37.6811C242.045 37.6811 241.285 37.5142 240.635 37.1804C239.985 36.843 239.481 36.3814 239.122 35.7955C238.764 35.206 238.584 34.5295 238.584 33.766V26.5909H240.23V33.6328C240.23 34.1264 240.339 34.565 240.555 34.9485C240.775 35.332 241.086 35.6339 241.487 35.854C241.889 36.0707 242.364 36.179 242.915 36.179C243.469 36.179 243.946 36.0707 244.348 35.854C244.753 35.6339 245.062 35.332 245.275 34.9485C245.491 34.565 245.6 34.1264 245.6 33.6328V26.5909ZM249.856 28.0078V26.5909H258.299V28.0078H254.895V37.5H253.254V28.0078H249.856Z" fill="white"/>
</svg>
